<svg id="Layer_1" enable-background="new 0 0 511.944 511.944" height="512" viewBox="0 0 511.944 511.944" width="512" xmlns="http://www.w3.org/2000/svg"><g><path d="m508.733 358.206-241.148-306.509c-2.845-3.615-7.189-5.725-11.79-5.725-.002 0-.006 0-.008 0-4.602.003-8.949 2.118-11.791 5.739l-240.795 306.785c-2.457 3.129-3.569 7.106-3.093 11.056s2.501 7.548 5.631 10.004c35.498 27.862 75.123 49.463 117.773 64.202 42.651 14.74 87.158 22.213 132.284 22.213 45.205 0 89.786-7.499 132.503-22.289 42.718-14.79 82.392-36.461 117.919-64.414 6.511-5.121 7.637-14.551 2.515-21.062zm-252.923-272.958 182.693 232.21c-53.132 37.821-117.48 58.513-182.834 58.513-65.158 0-129.335-20.577-182.375-58.189zm-.014 350.724c-78.565 0-155.939-25.111-219.547-70.993l18.498-23.567c58.316 41.726 129.078 64.559 200.922 64.559 72.054 0 142.996-22.956 201.408-64.905l18.615 23.66c-63.675 46.041-141.179 71.246-219.896 71.246z"/><path d="m253.831 299.973c8.284 0 15-6.716 15-15v-30c0-8.284-6.716-15-15-15s-15 6.716-15 15v30c0 8.284 6.716 15 15 15z"/><path d="m322.841 280.453c2.778 4.813 7.82 7.502 13.004 7.502 2.545 0 5.124-.648 7.486-2.012 7.174-4.142 9.633-13.316 5.49-20.49l-15-25.981c-4.143-7.175-13.316-9.632-20.49-5.49s-9.633 13.316-5.49 20.49z"/><path d="m168.331 285.943c2.362 1.364 4.941 2.012 7.486 2.012 5.184 0 10.227-2.69 13.004-7.502l15-25.981c4.142-7.174 1.684-16.348-5.49-20.49-7.175-4.144-16.349-1.684-20.49 5.49l-15 25.981c-4.142 7.174-1.684 16.348 5.49 20.49z"/></g></svg>