<?xml version="1.0" encoding="utf-8"?>
<!-- Generator: Adobe Illustrator 21.1.0, SVG Export Plug-In . SVG Version: 6.00 Build 0)  -->
<svg version="1.1" id="Capa_1" xmlns="http://www.w3.org/2000/svg" xmlns:xlink="http://www.w3.org/1999/xlink" x="0px" y="0px"
	 viewBox="0 0 612 612" style="enable-background:new 0 0 612 612;" xml:space="preserve">
<style type="text/css">
	.st0{fill:#ED3F39;}
	.st1{fill:#FFFFFF;}
	.st2{font-family:'Acrom-Bold';}
	.st3{font-size:290.6985px;}
</style>
<g>
	<g>
		<g>
			<path class="st0" d="M357.9,121.2c-23.5,11.9-35.6,19.6-51.9,19.6c-16.3,0-28.4-7.7-51.9-19.6C150.5,68.8-45.3,72.1,42,415.3
				c33,129.7,129.7,217.3,229.8,192.5c12-3,23.5-7.4,34.2-13.2c10.8,5.7,22.2,10.2,34.2,13.2C440.3,632.6,537.1,545,570,415.3
				C657.3,72.1,461.5,68.8,357.9,121.2z"/>
			<path class="st0" d="M293.5,125.6l0.5,0l0,0c5.5,0,54.5-0.9,85.4-31.8c32.3-32.3,31.8-83.8,31.8-86c-0.1-4.3-3.6-7.8-7.9-7.9
				l-0.5,0c-5.5,0-54.5,0.9-85.4,31.8c-32.3,32.3-31.8,83.8-31.8,86C285.7,122.1,289.2,125.6,293.5,125.6z"/>
		</g>
	</g>
</g>
<text transform="matrix(1 0 0 1 122.2802 421.988)" class="st1 st2 st3">A+</text>
</svg>
