<svg id="Capa_1" data-name="Capa 1" xmlns="http://www.w3.org/2000/svg" viewBox="0 0 571.72 612"><defs><style>.cls-1{fill:#ed3f39;}.cls-2{font-size:290.7px;fill:#fff;font-family:Acrom-Bold, Acrom;font-weight:700;}</style></defs><title>vit k</title><path class="cls-1" d="M357.88,121.23c-23.5,11.89-35.58,19.61-51.88,19.61s-28.37-7.71-51.88-19.61C150.54,68.8-45.3,72.15,42,415.29,74.93,545,171.65,632.58,271.77,607.8A148.58,148.58,0,0,0,306,594.64a148.58,148.58,0,0,0,34.23,13.17C440.35,632.58,537.08,545,570,415.29,657.3,72.15,461.46,68.8,357.88,121.23Z" transform="translate(-20.14)"/><path class="cls-1" d="M293.54,125.65h.53c5.5,0,54.54-.89,85.43-31.78,32.3-32.3,31.81-83.79,31.77-86a8.05,8.05,0,0,0-7.9-7.9h-.53c-5.49,0-54.54.89-85.43,31.78-32.3,32.29-31.81,83.79-31.77,86A8.05,8.05,0,0,0,293.54,125.65Z" transform="translate(-20.14)"/><text class="cls-2" transform="translate(102.14 421.99)">К+</text></svg>