<svg enable-background="new 0 0 512.395 512.395" viewBox="0 0 512.395 512.395" xmlns="http://www.w3.org/2000/svg"><g><path d="m158.453 332c-16.542 0-30-13.458-30-30s13.458-30 30-30c8.522 0 16.675 3.646 22.365 10.004l22.354-20.008c-11.375-12.708-27.674-19.996-44.719-19.996-33.084 0-60 26.916-60 60s26.916 60 60 60c17.045 0 33.345-7.288 44.719-19.996l-22.354-20.008c-5.69 6.358-13.843 10.004-22.365 10.004z"/><path d="m231.918 445.023c-3.887 6.74-5.965 14.295-5.965 21.977 0 24.813 20.187 45 45 45 7.683 0 15.236-2.078 21.978-5.965 23.191 8.075 49.101 8.153 73.483 1.977 29.115-7.375 56.568-23.336 79.392-46.16 40.643-40.643 62.288-100.875 44.183-152.875 3.887-6.74 5.965-14.295 5.965-21.977 0-24.813-20.187-45-45-45-7.683 0-15.236 2.078-21.978 5.965-48.201-16.783-103.467.718-143.022 35.027v-141.263l-60-30v-21.729h30v-90h-210v90h30v21.729l-60 30v280.271h210.625c1.016 7.974 2.788 15.697 5.339 23.023zm193.013-166.422 8.906 3.977c6.196-5.17 9.748-10.578 17.115-10.578 8.271 0 15 6.729 15 15 0 7.365-5.352 10.853-10.577 17.116l3.977 8.906c16.878 37.795 2.584 90.274-34.76 127.617s-89.819 51.639-127.618 34.76l-8.906-3.977c-6.196 5.17-9.748 10.578-17.115 10.578-8.271 0-15-6.729-15-15 0-7.365 5.352-10.853 10.577-17.116l-3.977-8.906c-16.878-37.795-2.583-90.273 34.761-127.617 37.345-37.345 89.823-51.637 127.617-34.76zm-348.978-248.601h150v30h-150zm30 100.271v-40.271h90v40.271l60 30v21.729h-210v-21.729zm-60 81.729h210v103.978c-12.197 17.171-21.053 35.986-26.012 55.561-1.731 6.833-2.93 13.676-3.635 20.461h-180.353z"/></g></svg>