<?xml version="1.0" encoding="UTF-8"?>
<!DOCTYPE svg PUBLIC "-//W3C//DTD SVG 1.1//EN" "http://www.w3.org/Graphics/SVG/1.1/DTD/svg11.dtd">
<!-- Creator: CorelDRAW 2020 (64-Bit) -->
<svg xmlns="http://www.w3.org/2000/svg" xml:space="preserve" version="1.1" style="shape-rendering:geometricPrecision; text-rendering:geometricPrecision; image-rendering:optimizeQuality; fill-rule:evenodd; clip-rule:evenodd"
viewBox="0 0 21000 29700"
 xmlns:xlink="http://www.w3.org/1999/xlink"
 xmlns:xodm="http://www.corel.com/coreldraw/odm/2003">
 <defs>
  <style type="text/css">
   <![CDATA[
    .fil34 {fill:#C0C03C}
    .fil1 {fill:#673D21;fill-rule:nonzero}
    .fil5 {fill:#B5E450;fill-rule:nonzero}
    .fil19 {fill:url(#id0);fill-rule:nonzero}
    .fil17 {fill:url(#id1);fill-rule:nonzero}
    .fil18 {fill:url(#id2);fill-rule:nonzero}
    .fil31 {fill:url(#id3);fill-rule:nonzero}
    .fil21 {fill:url(#id4);fill-rule:nonzero}
    .fil32 {fill:url(#id5);fill-rule:nonzero}
    .fil24 {fill:url(#id6);fill-rule:nonzero}
    .fil28 {fill:url(#id7);fill-rule:nonzero}
    .fil30 {fill:url(#id8);fill-rule:nonzero}
    .fil27 {fill:url(#id9);fill-rule:nonzero}
    .fil25 {fill:url(#id10);fill-rule:nonzero}
    .fil29 {fill:url(#id11);fill-rule:nonzero}
    .fil2 {fill:url(#id12);fill-rule:nonzero}
    .fil26 {fill:url(#id13);fill-rule:nonzero}
    .fil3 {fill:url(#id14);fill-rule:nonzero}
    .fil9 {fill:url(#id15);fill-rule:nonzero}
    .fil0 {fill:url(#id16);fill-rule:nonzero}
    .fil20 {fill:url(#id17);fill-rule:nonzero}
    .fil23 {fill:url(#id18);fill-rule:nonzero}
    .fil4 {fill:url(#id19);fill-rule:nonzero}
    .fil13 {fill:url(#id20);fill-rule:nonzero}
    .fil6 {fill:url(#id21);fill-rule:nonzero}
    .fil14 {fill:url(#id22);fill-rule:nonzero}
    .fil7 {fill:url(#id23);fill-rule:nonzero}
    .fil12 {fill:url(#id24);fill-rule:nonzero}
    .fil8 {fill:url(#id25);fill-rule:nonzero}
    .fil15 {fill:url(#id26);fill-rule:nonzero}
    .fil10 {fill:url(#id27);fill-rule:nonzero}
    .fil16 {fill:url(#id28);fill-rule:nonzero}
    .fil33 {fill:url(#id29);fill-rule:nonzero}
    .fil11 {fill:url(#id30);fill-rule:nonzero}
    .fil22 {fill:url(#id31);fill-rule:nonzero}
   ]]>
  </style>
  <linearGradient id="id0" gradientUnits="userSpaceOnUse" x1="9712.91" y1="15695.41" x2="9249.31" y2="16561.22">
   <stop offset="0" style="stop-opacity:1; stop-color:#FFFEAB"/>
   <stop offset="1" style="stop-opacity:1; stop-color:#FADA3C"/>
  </linearGradient>
  <linearGradient id="id1" gradientUnits="userSpaceOnUse" x1="8862.03" y1="15447.04" x2="9006.36" y2="15446.32">
   <stop offset="0" style="stop-opacity:1; stop-color:#317255"/>
   <stop offset="0.54902" style="stop-opacity:1; stop-color:#94D962"/>
   <stop offset="1" style="stop-opacity:1; stop-color:#B5E450"/>
  </linearGradient>
  <linearGradient id="id2" gradientUnits="userSpaceOnUse" xlink:href="#id1" x1="8576.35" y1="15743.19" x2="8944.27" y2="15718.03">
  </linearGradient>
  <linearGradient id="id3" gradientUnits="userSpaceOnUse" xlink:href="#id0" x1="11625.75" y1="13940.17" x2="10916.95" y2="14341.64">
  </linearGradient>
  <linearGradient id="id4" gradientUnits="userSpaceOnUse" xlink:href="#id1" x1="11093.87" y1="14746.24" x2="11201.56" y2="14695.67">
  </linearGradient>
  <linearGradient id="id5" gradientUnits="userSpaceOnUse" xlink:href="#id1" x1="12593.46" y1="15720.41" x2="12525.3" y2="15303.68">
  </linearGradient>
  <linearGradient id="id6" gradientUnits="userSpaceOnUse" xlink:href="#id0" x1="11403.19" y1="13682.59" x2="11145.47" y2="13773.4">
  </linearGradient>
  <linearGradient id="id7" gradientUnits="userSpaceOnUse" xlink:href="#id0" x1="11607.13" y1="14264.23" x2="11837.09" y2="14166.34">
  </linearGradient>
  <linearGradient id="id8" gradientUnits="userSpaceOnUse" xlink:href="#id0" x1="11350.07" y1="13767.15" x2="11399.49" y2="13520.1">
  </linearGradient>
  <linearGradient id="id9" gradientUnits="userSpaceOnUse" xlink:href="#id0" x1="11649.96" y1="14199.05" x2="11612.41" y2="14407.4">
  </linearGradient>
  <linearGradient id="id10" gradientUnits="userSpaceOnUse" xlink:href="#id0" x1="11363.84" y1="13910.03" x2="11203.26" y2="14016.52">
  </linearGradient>
  <linearGradient id="id11" gradientUnits="userSpaceOnUse" xlink:href="#id0" x1="11544.02" y1="13890.44" x2="11545.86" y2="13687.66">
  </linearGradient>
  <linearGradient id="id12" gradientUnits="userSpaceOnUse" x1="12698.64" y1="14116.42" x2="12712.1" y2="14887.47">
   <stop offset="0" style="stop-opacity:1; stop-color:#FADA3C"/>
   <stop offset="0.203922" style="stop-opacity:1; stop-color:#FCEC73"/>
   <stop offset="0.509804" style="stop-opacity:1; stop-color:#FFFEAB"/>
   <stop offset="0.815686" style="stop-opacity:1; stop-color:#FFE956"/>
   <stop offset="1" style="stop-opacity:1; stop-color:#FFD400"/>
  </linearGradient>
  <linearGradient id="id13" gradientUnits="userSpaceOnUse" xlink:href="#id0" x1="11517.47" y1="14076.4" x2="11428.18" y2="14254.45">
  </linearGradient>
  <linearGradient id="id14" gradientUnits="userSpaceOnUse" xlink:href="#id12" x1="12697.46" y1="13531.49" x2="12515.15" y2="14722.31">
  </linearGradient>
  <linearGradient id="id15" gradientUnits="userSpaceOnUse" xlink:href="#id1" x1="10499.34" y1="16303.36" x2="10380.44" y2="16441.39">
  </linearGradient>
  <linearGradient id="id16" gradientUnits="userSpaceOnUse" xlink:href="#id12" x1="11631.07" y1="13489.07" x2="11922.52" y2="14858.71">
  </linearGradient>
  <linearGradient id="id17" gradientUnits="userSpaceOnUse" xlink:href="#id1" x1="11302.32" y1="14910.92" x2="11381.4" y2="14706.22">
  </linearGradient>
  <linearGradient id="id18" gradientUnits="userSpaceOnUse" xlink:href="#id0" x1="11665.18" y1="14040.63" x2="11799.21" y2="13954.02">
  </linearGradient>
  <linearGradient id="id19" gradientUnits="userSpaceOnUse" xlink:href="#id12" x1="11815.64" y1="13404.5" x2="12077.07" y2="14995.3">
  </linearGradient>
  <radialGradient id="id20" gradientUnits="userSpaceOnUse" gradientTransform="matrix(-0.948521 1.10117 0.801751 0.690611 9448 -7775)" cx="11823.64" cy="16950.92" r="159.77" fx="11823.64" fy="16950.92">
   <stop offset="0" style="stop-opacity:1; stop-color:#A285ED"/>
   <stop offset="0.160784" style="stop-opacity:1; stop-color:#8767D9"/>
   <stop offset="0.501961" style="stop-opacity:1; stop-color:#6D49C5"/>
   <stop offset="0.870588" style="stop-opacity:1; stop-color:#593BA5"/>
   <stop offset="1" style="stop-opacity:1; stop-color:#462D85"/>
  </radialGradient>
  <radialGradient id="id21" gradientUnits="userSpaceOnUse" gradientTransform="matrix(-0.67829 0.884114 1.08127 0.937664 -316 -7312)" cx="9310" cy="14742.94" r="633.4" fx="9310" fy="14742.94">
   <stop offset="0" style="stop-opacity:1; stop-color:#FFFEAB"/>
   <stop offset="1" style="stop-opacity:1; stop-color:#B5E450"/>
  </radialGradient>
  <radialGradient id="id22" gradientUnits="userSpaceOnUse" gradientTransform="matrix(-0.873907 1.01454 1.1718 1.00936 1233 -11748)" xlink:href="#id20" cx="11421.1" cy="17211.79" r="126.4" fx="11421.1" fy="17211.79">
  </radialGradient>
  <radialGradient id="id23" gradientUnits="userSpaceOnUse" gradientTransform="matrix(-0.99774 1.15831 0.949264 0.817676 6850 -10142)" xlink:href="#id20" cx="11394.49" cy="16763.54" r="147.27" fx="11394.49" fy="16763.54">
  </radialGradient>
  <radialGradient id="id24" gradientUnits="userSpaceOnUse" gradientTransform="matrix(-0.967641 1.12336 0.968447 0.8342 7109 -10463)" xlink:href="#id20" cx="11755.38" cy="16542.9" r="140.21" fx="11755.38" fy="16542.9">
  </radialGradient>
  <radialGradient id="id25" gradientUnits="userSpaceOnUse" gradientTransform="matrix(-1.0181 1.18194 0.995432 0.857444 5535 -10560)" xlink:href="#id20" cx="10938.46" cy="16615.94" r="149.07" fx="10938.46" fy="16615.94">
  </radialGradient>
  <radialGradient id="id26" gradientUnits="userSpaceOnUse" gradientTransform="matrix(-0.944425 1.09641 1.2526 1.07896 116 -13457)" xlink:href="#id20" cx="11045.54" cy="17053.33" r="104.58" fx="11045.54" fy="17053.33">
  </radialGradient>
  <radialGradient id="id27" gradientUnits="userSpaceOnUse" gradientTransform="matrix(-0.901188 1.04622 0.883955 0.76142 6484 -7595)" xlink:href="#id20" cx="10964.49" cy="16247.24" r="164.7" fx="10964.49" fy="16247.24">
  </radialGradient>
  <radialGradient id="id28" gradientUnits="userSpaceOnUse" gradientTransform="matrix(-0.613909 0.712705 1.06391 0.916431 -732 -6200)" xlink:href="#id20" cx="10679.09" cy="16887.54" r="122.88" fx="10679.09" fy="16887.54">
  </radialGradient>
  <radialGradient id="id29" gradientUnits="userSpaceOnUse" gradientTransform="matrix(-1.36781 -1.1683 -1.29968 1.52162 49864 6133)" cx="12340.78" cy="15883.5" r="222.87" fx="12340.78" fy="15883.5">
   <stop offset="0" style="stop-opacity:1; stop-color:#FF3866"/>
   <stop offset="1" style="stop-opacity:1; stop-color:#EA1B4C"/>
  </radialGradient>
  <radialGradient id="id30" gradientUnits="userSpaceOnUse" gradientTransform="matrix(-1.01455 1.17782 0.98441 0.84795 6821 -10922)" xlink:href="#id20" cx="11386.29" cy="16372.48" r="149.06" fx="11386.29" fy="16372.48">
  </radialGradient>
  <radialGradient id="id31" gradientUnits="userSpaceOnUse" gradientTransform="matrix(1.47059 -0 -0 1.35523 -5028 -5406)" cx="10684.35" cy="15216.97" r="264.88" fx="10684.35" fy="15216.97">
   <stop offset="0" style="stop-opacity:1; stop-color:#EA1B4C"/>
   <stop offset="1" style="stop-opacity:1; stop-color:#8F0425"/>
  </radialGradient>
 </defs>
 <g id="Слой_x0020_1">
  <metadata id="CorelCorpID_0Corel-Layer"/>
  <g id="_2446382870448">
   <g>
    <g>
     <path class="fil0" d="M12067.43 14109.36c-22.45,341.07 -163.44,683.6 -396.96,964.56 -24.02,28.89 -43.76,54.68 -40.95,77.28 1.25,10.5 7.69,19.99 15.57,28.08 317.44,-222.29 532.91,-583.41 576.82,-968.5 42.94,-376.57 -79.28,-767.61 -327.14,-1054.07 -22.45,18.04 -46.59,33.95 -72.05,47.37 177.49,255.21 266.17,579 244.71,905.28z"/>
     <path class="fil1" d="M11701.67 12809.8c-27.76,-5.34 -40.36,2.44 -47.78,11.1l-2.28 2.93c-25.7,34.93 -19.37,117.45 3.82,160.54 19.93,37.06 48.02,69.88 77.7,104.56 7.89,9.25 15.83,18.46 23.56,27.82 6.32,7.6 12.23,15.53 18.37,23.28 60.33,-29.29 112.61,-75.21 149.17,-131.54 -17.83,-18.68 -35.4,-39.09 -53.46,-60.31 -53.02,-62.26 -107.85,-126.53 -169.1,-138.38z"/>
     <path class="fil2" d="M12625.52 14702.94c25.2,81.34 51.28,165.46 71.53,238.98 10.95,39.9 22.91,77.09 48.31,93.7 4.54,2.96 9.49,4.9 14.61,6.47 61.6,-197.58 68.3,-430.25 19.07,-674.11 -28.87,-142.82 -74.46,-281.02 -124.95,-410.05 1.12,33.71 1.31,67.63 -0.4,101.9 -7,142.63 -37.45,288.13 -90.82,435.46 18.58,65.31 40.79,137.31 62.65,207.65z"/>
     <path class="fil3" d="M12506.4 13353.84c-17.26,-15.56 -34.86,-30.65 -52.79,-45.28 -31.95,-26.04 -64.93,-50.57 -98.83,-73.46 115.03,112.56 200.25,257.88 249.98,421.24 5.11,3.82 9.54,8.81 12.4,15.07 89.84,196.57 188.46,431.21 238.94,681.01 49.05,242.85 46.06,467.69 -8.39,669.47 73.33,-51.69 99.09,-154.12 113.25,-238.01 63,-372.71 6.04,-747.84 -160.4,-1056.4 -76.23,-141.34 -177.02,-268.03 -294.16,-373.64z"/>
     <path class="fil4" d="M12478.85 14487.18c-4.95,-17.96 3.55,-36.39 19.24,-44.91 44.92,-130.94 70.9,-259.99 77.08,-386.29 15.81,-320.83 -108.45,-630.93 -324.31,-809.26 -46.98,-38.8 -97.56,-71.69 -151.09,-106.56 -36.84,-24 -74.57,-49.04 -111.1,-75.78l-4.77 -1.45 -1.27 -0.51c-8.62,12.41 -17.64,24.53 -27.45,35.97l-3.57 3.9c263.75,303.19 393.95,717.97 348.41,1117.39 -32.9,288.22 -156.56,563.86 -345.06,783.66 -69.49,81.03 -147.8,154.44 -233.6,218.1 86.6,27.32 194.12,11.92 287.07,-43.82 109.53,-65.56 189.73,-172.7 253.75,-268.91 93.44,-140.37 166.07,-279.58 218.02,-416.84l-1.35 -4.69z"/>
    </g>
    <g>
     <path class="fil5" d="M8064.9 14308.12l3.68 -11.61c9.18,-27.92 18.63,-32.8 21.3,-33.71 7.93,-2.6 25.19,3.58 35.52,7.27l452.8 161.17c-3.86,14.22 -7.23,28.48 -9.73,42.84 -157.72,-79.54 -331.79,-132.21 -507.6,-153.31 1.4,-4.33 2.7,-8.53 4.03,-12.65z"/>
     <path class="fil5" d="M8021.11 15210.27c-8.91,6.19 -8.91,6.19 -7.99,-1.96 20.18,-175.91 -19.51,-311.07 86.89,-476.69 54.53,-84.79 140.54,-150.81 236.05,-181.09 42.58,-13.47 93.51,-21.93 132.73,-19.77 -150.2,74.86 -276.97,199.31 -352.93,348.75 -10.41,19.55 -2.74,43.69 16.89,53.66 19.35,9.8 42.96,2.11 52.81,-17.23l0.4 -0.79c72.81,-143.26 197.71,-260.58 344.57,-326.02 -5.52,72.51 -70.94,186.39 -100.99,238.66l-2.58 4.51c-51.6,89.85 -117.07,169.9 -194.45,237.76 -57.74,48.35 -145.7,94.53 -211.4,140.21z"/>
     <path class="fil6" d="M10435.46 14639.77c42.02,195.93 -14.29,389.68 -68.9,517.67 -62.49,146.49 -143.15,255 -239.67,322.66 -114.55,80.32 -258.86,100.44 -367.58,51.2 -90.48,-41.01 -153.45,-122 -220.09,-207.77 -42.3,-54.44 -86.01,-110.71 -138.37,-157.88 -87.48,-78.83 -193.53,-127.79 -294.62,-171.2l-33.03 -14.09c-87.07,-37.05 -177.12,-75.32 -253.71,-129.39 -90.8,-64.08 -151.66,-144.95 -171.37,-227.62 -31.47,-131.75 35.01,-323.1 167.82,-372.36 134.62,-49.92 261.69,-25.83 396.16,-0.36 63.74,12.11 129.61,24.57 198.21,29.51 102.97,7.42 206.69,-8.03 306.91,-22.93 143.47,-21.3 278.97,-41.47 406.07,2.27 151.27,52.1 273.8,201.39 312.17,380.29z"/>
    </g>
    <g>
     <path class="fil7" d="M11527.15 16956.36l6.47 -4.5 3.59 -2.62c17.48,-13.21 33.14,-29.33 46.74,-47.64 17.98,-24.66 31.88,-53.39 40.33,-83.77 5.54,-19.11 8.82,-39.11 9.71,-59.78 1.01,-19.88 -0.29,-39.41 -3.82,-58.28 -1.74,-9.49 -4.18,-18.63 -7,-27.58l-2.7 -7.77c-2.29,-6.52 -4.82,-12.79 -7.6,-18.9l-2.12 -4.49c-10.04,8.65 -20.66,16.7 -31.77,24.12 -20.43,13.6 -42.77,24.67 -65.83,32.63l-0.16 0.1 -0.19 0.04 -1.12 0.32c-11.11,3.94 -22.31,7.09 -33.61,9.79l-10.73 2.28c-8.49,1.68 -17.06,3.1 -25.65,4.18l-11.07 1.22c-10.18,0.94 -20.35,1.38 -30.45,1.31l-5.23 0.1c-11.87,-0.2 -23.66,-1.22 -35.33,-2.69l-9.16 -1.52c-8.72,-1.39 -17.37,-3.08 -25.95,-5.16l-10.59 -2.74c-8.81,-2.53 -17.45,-5.42 -26.01,-8.61l-7.49 -2.76 -2.64 -0.98 -1.51 5.21c-2.09,8.75 -4.63,17.32 -7.37,25.88l-3.84 12.37c-4.42,12.54 -9.47,24.9 -15.22,36.83 -6.17,12.64 -13.02,24.54 -20.33,36.04l-7.41 10.85 -8.53 12.49 1.01 10.34 2.35 12.26c1.51,6.23 3.6,12.34 5.88,18.33l4.41 11.14c2.98,6.38 6.71,12.53 10.63,18.62l5.57 8.91c6.41,8.85 13.68,17.39 22.06,25.6 6.16,6.07 13.16,11.55 20.64,16.79 4.94,3.49 9.96,6.9 15.57,10.09 3.36,1.9 6.99,3.74 11.93,6.11 2.44,1.27 5.04,2.51 10.28,4.51l10.43 4.06 1.93 0.67 0.16 0.09 14.66 4.19 12.62 2.94 5.48 0.85 5.39 0.85 6.51 0.92 5.08 0.42 13.02 0.9c46.25,1.65 91.62,-10.65 127.98,-34.56z"/>
     <path class="fil8" d="M11076.06 16822.41c16.14,-10.65 31,-23.76 44.56,-39.51l0.78 -0.9c12.37,-15.06 25.18,-33.36 35.12,-53.59l0.32 -0.56c15.23,-31.51 24.23,-66.48 26.23,-103.14l0.32 -17.51c-0.13,-13.68 -1.48,-27.58 -4.12,-41.5 -5.9,-31.68 -17.68,-60.94 -34.76,-85.21 -6.35,-9.4 -13.91,-17.95 -22.64,-25.7 -4.18,-3.84 -8.73,-7.44 -12.86,-10.4 -40.89,-28.62 -101.86,-33.87 -155.45,-13.25 -10.05,3.82 -20.12,8.5 -30.08,13.8 -29.94,15.95 -58.99,38.22 -83.97,64.66l0 0 -10.26 11.4c-24.93,28.94 -44.03,60.96 -55.58,93.55 -18.04,50.69 -25.61,124.57 40.6,188.65 30.17,29.26 72.5,47.98 119.02,52.66l0.03 0.02c33.57,3.45 67.68,-0.59 99.23,-11.97 15.64,-5.43 30.17,-12.6 43.51,-21.5z"/>
     <path class="fil9" d="M10260.65 16185.66c-26.25,0.45 -49.38,7.51 -64.95,19.94 -14.01,11.09 -22.51,28.71 -20.65,42.72 3.51,26.53 39.04,50.41 69.62,68.11 145.77,84.78 301.93,150.25 464.32,195.4 3.62,-6.05 7.62,-11.92 11.62,-17.87 -78.06,-36.24 -139.53,-96.4 -199.16,-155.19l-26.19 -25.73c-62.04,-60.19 -144.78,-129.11 -234.61,-127.38z"/>
     <path class="fil10" d="M11135.07 16080.64c-40.81,-28.47 -101.75,-33.67 -155.33,-13.07 -46.55,17.73 -90.19,50.07 -124.1,89.44 -31.83,36.95 -55.03,80.08 -64.14,123.01 -9.28,43.6 -3.77,83.21 16.37,118.23 8.97,-7.3 18.23,-14.08 27.6,-20.57l4.78 -3c10,-6.7 20.21,-12.83 30.58,-18.52l9.43 -4.99c11.98,-6.13 24.06,-11.79 36.32,-16.55 85.96,-33.03 182.4,-23.38 252.19,25.45l11.59 8.78 2.18 -4.43c4.02,-8.29 7.62,-16.79 10.75,-25.53l2.51 -6.79c3.6,-10.75 6.51,-21.72 8.75,-32.93l0.6 -3.85c1.81,-10.04 2.97,-20.19 3.65,-30.37l0.41 -7.53c0.42,-11.46 0.28,-23.02 -0.83,-34.5 -0.57,-6.96 -1.56,-13.93 -2.84,-20.8 -9.77,-52.59 -35.47,-96.93 -70.47,-121.48z"/>
     <path class="fil11" d="M11554.88 16200.9c-40.84,-28.59 -101.86,-33.77 -155.32,-13.23 -30.1,11.53 -59.7,29.54 -86.67,52.43l-0.15 5.94 -0.15 10.58c-0.21,7.9 -0.66,15.71 -1.37,23.58l-1.05 10.61c-1.05,9.25 -2.51,18.36 -4.3,27.45l-0.98 5.52c-2.27,10.84 -5.06,21.55 -8.35,32.15l-2.82 8.53c-2.63,7.82 -5.42,15.56 -8.49,23.16l-4.23 9.93c-3.31,7.52 -6.87,14.93 -10.73,22.21l-4.04 7.88c-5.16,9.34 -10.65,18.41 -16.58,27.25l2.57 6.06c5.07,10.29 9.58,21 13.62,31.97l3.98 11.39c4.44,13.84 8.38,27.92 11.05,42.41 1.97,10.66 3.43,21.28 4.37,31.88l0.16 0.98 7.22 4.62 9.9 5.73 12.28 5.74 10.64 4.45 13.46 4.26 10.7 3.07 15.12 2.86 9.96 1.62 17.43 1.22 8.26 0.44c6.93,0.05 13.83,-0.36 20.77,-0.98l5.36 -0.3c8.7,-0.94 17.41,-2.37 25.98,-4.3l0.09 0c8.83,-2.03 17.57,-4.58 26.14,-7.66 15.39,-5.31 29.79,-12.43 43.02,-21.29 14.68,-9.71 27.5,-21.71 39.47,-34.64 4.95,-5.37 10.15,-10.44 14.63,-16.37 5,-6.5 9.74,-13.34 14.07,-20.37 5.7,-9.35 10.63,-19.21 15.17,-29.23 19.6,-43.45 27.99,-92.66 22.49,-139.7l-2.45 -16.5c-5.87,-31.73 -17.69,-60.94 -34.48,-84.88 -10.1,-14.59 -22.12,-26.85 -35.75,-36.47z"/>
     <path class="fil12" d="M11962.69 16497.1c-5.9,-31.62 -17.72,-60.89 -34.5,-84.81 -10.16,-14.67 -22.23,-26.98 -35.75,-36.51 -40.95,-28.57 -101.91,-33.81 -155.68,-13.11l-4.1 1.6 -0.23 3.8c0.03,13.61 -0.88,27.15 -2.35,40.56l-1.52 11.97c-1.92,13.66 -4.5,27.19 -7.99,40.57l-0.78 3.65c-3.91,14.48 -8.94,28.61 -14.52,42.44l-4.5 10.36c-5.09,11.53 -10.71,22.73 -16.98,33.69l-2.71 5.34c3.64,5.28 6.81,11.02 10.16,16.55l6.79 11.11c3.22,5.86 5.84,12.12 8.71,18.31l5.66 12.08c3.15,7.63 5.66,15.58 8.26,23.5l3.05 8.83c3.23,11.05 5.96,22.41 8.06,33.85 5,26.66 6.82,54.38 5.43,82.05 -0.36,8.49 -1.02,16.92 -1.97,25.34l3.98 -0.05c8.23,0.04 16.45,-0.39 24.57,-1.24l7.72 -0.89c9.54,-1.31 19.01,-3.07 28.27,-5.65l3.55 -1.1c8.2,-2.42 16.18,-5.33 23.99,-8.68l7.05 -3.09c8.66,-4.06 17.16,-8.49 25.1,-13.76 29,-19.14 54.12,-46.36 72.61,-79.1 30.5,-53.51 41.61,-118.23 30.62,-177.61z"/>
     <path class="fil13" d="M11934.69 17133.02c79.23,-52.6 121.72,-158.02 103.32,-256.81 -5.84,-31.69 -17.7,-60.92 -34.52,-84.88 -4.37,-6.35 -9.08,-12.22 -14.17,-17.68l-2.57 2.71 -3.8 4.87c-5.64,6.55 -12.06,12.33 -18.12,18.39 -3.98,3.93 -7.58,8.19 -11.71,11.83 -11.66,10.47 -23.89,20.17 -36.81,28.67 -8.4,5.52 -17.11,10.53 -26.04,15.19l-8.64 4.13c-6.25,3.04 -12.59,5.9 -19.08,8.51l-10.29 3.86c-6.31,2.31 -12.69,4.37 -19.2,6.28l-10.33 2.91c-7.3,1.9 -14.68,3.42 -22.11,4.82l-7.85 1.57c-10.2,1.63 -20.39,2.83 -30.7,3.52l-5.12 0.12c-8.59,0.48 -17.21,0.65 -25.86,0.47l-9.72 -0.49 -13.12 -0.7 -3 6.13c-3.67,8.2 -7.68,16.29 -11.91,24.21l-5.52 10.27c-6.36,10.88 -13.09,21.52 -20.58,31.83 -5.25,7.12 -10.74,14.02 -16.48,20.67l-2.51 2.68c-5.04,5.66 -10.31,10.99 -15.65,16.31l-8.56 8.54 -2.2 2.19 0.62 7.12 2.36 11.15c1.59,6.42 3.57,12.76 5.99,19l4.37 10.6c3,6.46 6.68,12.64 10.64,18.8l5.41 8.58c6.39,8.75 13.55,17.27 21.88,25.37 5.93,5.79 12.31,11.12 19.16,16.11 13.33,9.6 28.29,17.54 44.44,23.68l1.06 0.44 11.89 3.64 13.98 4.16c59.04,13.66 122.95,2.86 171.05,-28.77z"/>
     <path class="fil14" d="M11597 17371.11l0.09 -0.01c42.9,-28.35 75.57,-72.54 93.12,-124.76 -8.7,-3.7 -17.17,-7.75 -25.35,-12.14l-2.44 -1.42c-9.58,-5.23 -18.73,-11.08 -27.58,-17.34l-7.24 -5.24c-9.3,-6.94 -18.28,-14.3 -26.57,-22.36 -8,-7.79 -15.32,-15.92 -22.2,-24.28l-6.24 -8c-4.54,-5.89 -8.89,-11.92 -12.89,-18.01l-5.93 -9.5c-3.7,-6.15 -7.02,-12.41 -10.17,-18.79l-4.52 -9.18c-3.71,-8.43 -7.05,-16.99 -9.86,-25.69l-1.01 -2.78 -3.73 1.26c-8.23,3.14 -16.59,5.95 -25.07,8.41l-3.54 1.13c-9.66,2.68 -19.45,4.84 -29.35,6.63l-8.11 1.21c-7.59,1.18 -15.22,2.12 -22.9,2.76l-8.7 0.69c-10.14,0.59 -20.24,0.89 -30.42,0.55 -7.06,-0.16 -13.85,-0.7 -19.5,-1.28l-13.19 -1.49 -13.3 -1.98 -2.23 -0.32 -11.47 -2.24c-5.68,7.47 -10.85,15.05 -15.7,22.78l-4.63 8.14c-2.93,4.96 -5.76,9.9 -8.31,14.9l-5.03 10.95 -5.32 12.41 -4.24 11.87 -3.58 11.63 -2.96 12.08 -2.06 11.63 -1.57 11.6 -0.65 12.79 -0.17 9.86 1.83 18.85 0.35 3.26c5.67,33.99 22.76,64.99 50.67,92.15 64.99,63.02 182.39,71.62 261.67,19.27z"/>
     <path class="fil15" d="M11178.88 17232.68l0.75 -9.67c0.29,-9.67 0.95,-19.26 2.23,-28.91l2.57 -16.42c1.79,-9.31 4.07,-18.55 6.64,-27.79l4.27 -15.17c4.49,-13.48 9.86,-26.92 16.16,-40.21l6.26 -11.59c5.19,-10.07 10.85,-20.04 17.07,-29.91l3.5 -6.09 -11.86 -8.33 -8.86 -6.25c-8.68,-6.63 -16.93,-13.61 -24.41,-20.95 -7.26,-7.03 -14,-14.34 -20.38,-21.82l-5.95 -7.69c-3.99,-5.11 -8.03,-10.18 -11.69,-15.44l-5.87 -9.47c-3.1,-4.95 -6.23,-9.82 -8.99,-14.92l-5.12 -10.4 -6.94 -15.09 -1.7 -3.74c-5.42,3.37 -11.24,6.26 -16.86,9.3l-10.24 5.62c-10.57,5.16 -21.39,9.79 -32.46,13.59 -10.31,3.68 -20.87,6.73 -31.6,9.39l-9.84 2.1c-7.7,1.64 -15.5,3.04 -23.34,4.16l-10.73 1.36c-8.76,0.93 -17.55,1.48 -26.38,1.67l-6.94 0.33 -1.11 0.04 -4.28 7.52 -5.99 13.03c-3.27,7.42 -6.13,14.88 -8.56,22.34l-4.04 13.24c-2.02,7.69 -3.36,15.23 -4.41,22.8l-1.73 11.86c-0.91,10.65 -0.9,21.13 0.12,31.33l0.04 2c4.07,37.69 21.54,71.77 52.04,101.36 48.72,47.28 127.73,64.8 198.63,46.82z"/>
     <path class="fil16" d="M10824.25 17050.97l0.45 -4.57 1.34 -13.53 1.86 -13.76 2.63 -13.44 3.15 -13.96 3.85 -13.44 4.45 -13.89 5 -13.28 3.16 -8.32 -1.12 -0.46c-9.28,-3.21 -18.27,-6.87 -27.02,-10.93l-6.86 -3.4c-6.47,-3.21 -12.87,-6.6 -19.07,-10.22l-8.2 -5.02c-5.85,-3.65 -11.48,-7.51 -16.95,-11.56l-6.93 -5.14c-7.53,-5.88 -14.78,-12.04 -21.6,-18.65 -11.18,-10.78 -20.98,-22.26 -29.96,-34.08l-7.89 -11.72c-5.65,-8.29 -11,-16.67 -15.69,-25.42l-6.81 -14.43c-3.84,-8.39 -7.28,-16.79 -10.12,-25.47l-4.7 -15.48c-2.38,-8.94 -4.11,-18.02 -5.53,-27.2l-2.1 -10.13c-74.47,83.38 -108.26,201.9 -19.73,287.71 45.08,43.75 117.01,62.28 184.39,49.79z"/>
    </g>
    <g>
     <path class="fil17" d="M9002.68 15669.76c-62.27,-45.43 -106.19,-142.33 -124.87,-211.57 -20.82,-77.09 -20.91,-158.66 -1.01,-235.53l2.02 2.51c10.51,13.06 19.66,24.36 22.32,28.23 19.37,30.61 36.45,63.39 50.71,97.43 28.54,68.19 45.7,140.04 50.9,213.52l0.8 10.57c4.18,53.56 3.09,81.47 0.41,95.78l-1.28 -0.94z"/>
     <path class="fil18" d="M8747.4 15763.75c-45.76,-9.58 -89.89,-25.03 -136.59,-41.38 -11.64,-4.07 -23.41,-8.21 -35.3,-12.25 92.73,-28.21 195.95,-28.41 291.11,1.31 28.91,9.02 55.25,19.89 78.5,32.32 -67.5,39.15 -152.7,29.39 -197.72,20z"/>
     <path class="fil19" d="M9577.28 16608.16c-159.61,-2.73 -309.55,-54.09 -422.1,-144.6 -120.58,-96.93 -196.03,-240.32 -201.75,-383.45 -4.89,-121.71 50.39,-288.25 162.31,-357.09 30.02,-18.53 67.88,-26.75 107.95,-35.46 18.41,-3.96 37.43,-8.11 55.88,-13.36 96,-27.3 167.22,-32.58 238.25,-17.61 136.85,28.8 243.64,115.16 309.11,182.48 69.7,71.71 157.13,188.06 177.92,335.23 14.35,101.67 -8.34,202.18 -60.12,278.22 -26.54,-120.79 -93.23,-231.41 -189.47,-310.18 -113.36,-92.73 -261.94,-137.16 -407.64,-121.81 -21.58,2.27 -37.25,21.63 -34.96,43.22 2.28,21.59 21.61,37.24 43.21,34.97 124.94,-13.15 252.37,24.93 349.59,104.47 97.15,79.48 159.65,196.65 171.63,321.52 -91.97,71.13 -212.61,84.93 -299.81,83.45z"/>
    </g>
    <g>
     <path class="fil20" d="M11319.55 14809.43l0.03 0c52.74,-27.99 109.95,-45.61 169.55,-59.37 -10.91,19.4 -25.68,45.67 -29.56,50.79 -32.53,37.64 -71.17,69.7 -114.84,95.3 -39.53,23.22 -131.73,55.63 -168.94,55.61 4.95,-10.75 10.49,-21.62 16.22,-32.48 27.66,-41.99 72.18,-80.46 127.54,-109.85z"/>
     <path class="fil21" d="M11125.42 14651.53l5.29 0.95c26.68,6.59 46.32,39.8 48.48,69.13 3.02,41.14 -16.46,84.61 -35.86,121.75l-11.32 21.23c-2.78,5.25 -5.6,10.62 -8.43,15.9 -2.25,3.59 -4.26,7.23 -6.32,10.86 17.16,-70.57 16.68,-138.86 -1.03,-213.62 -1.71,-7.3 -4.93,-20.82 -4.24,-23.76 1.12,-1.03 6.55,-3.2 13.43,-2.44z"/>
     <path class="fil22" d="M10466.31 15088.95c62.6,-95.5 156.9,-161.28 258.66,-180.58 123.64,-23.44 222.87,32.41 284.23,83.35 69.85,58.04 146.23,62.32 220.11,66.5 35.18,1.99 68.37,3.85 101.4,11.19l4.78 1.15c96.86,23.93 179.81,112.64 207.33,222.34 24.99,99.87 8.27,217.03 -47.08,329.96 -89.83,183.07 -264.24,318.72 -455.16,354.06 -197.08,36.46 -411.14,-38.99 -532.76,-187.73 -83.19,-101.78 -129.03,-238.14 -129.06,-384.02 -0.09,-119.48 30.24,-228.85 87.55,-316.22z"/>
    </g>
    <g>
     <path class="fil23" d="M11816.91 14093.53c-75.78,-40.78 -152.18,-80.88 -229.12,-120.26 39.77,-30.61 78.99,-61.72 117.5,-93.58 44.75,72.87 80.9,146.66 111.62,213.84z"/>
     <path class="fil24" d="M11160.53 13765.96c-7.65,-35.94 -11.49,-69.09 -11.54,-100.64 -0.06,-53.99 11.45,-104.19 32.88,-145.87 77.19,120.29 153.24,242.1 228.27,364.69 -79.93,-39.34 -160.07,-78.08 -240.43,-115.47l-9.18 -2.71z"/>
     <path class="fil25" d="M11452.27 13985.08c-50.89,36.99 -102.4,73.06 -154.65,107.57 -41.93,-66.19 -77.75,-139.96 -106.6,-221.27 -1.86,-5.32 -3.53,-10.43 -5.28,-15.64 89.08,41.94 178.01,85.07 266.53,129.34z"/>
     <path class="fil26" d="M11486.81 14048.68c5.64,87.94 8.95,176.03 10.12,263.9 -30.52,-22.97 -59.77,-48.42 -87.11,-76.51 -25.41,-26.03 -49.15,-54.26 -71.6,-84.2 50.17,-33.19 99.64,-67.78 148.59,-103.19z"/>
     <path class="fil27" d="M11568.97 14360.15l0.41 -4.12c-0.37,-72.26 -2.39,-144.66 -5.73,-217.03 56.87,96 113,192.2 167.98,288.66 -55.69,-14.38 -110.49,-37.29 -162.66,-67.51z"/>
     <path class="fil28" d="M11816.67 14400.07c-2.94,4.97 -6.55,9.6 -9.75,14.46 -67.31,-118.35 -136.4,-236.36 -206.45,-353.96 81.6,42.12 162.76,84.83 242.87,128.52l6.53 2.76c12.4,63.04 9.21,136.08 -33.2,208.22z"/>
     <path class="fil29" d="M11665.84 13819.21c-38.48,32 -77.75,63.17 -117.52,93.9 -7.92,-89.59 -18.03,-178.87 -30.43,-267.69 39.48,38.55 76.75,79.73 110.93,123.37 12.98,16.53 25.18,33.44 37.02,50.42z"/>
     <path class="fil30" d="M11434.61 13571.35l0.09 1.38c14.04,89.86 25.58,180.35 34.95,271.12 -73.8,-120.5 -148.52,-240.22 -224.41,-358.53l7.18 0.26c57.39,5.27 114.68,32.31 182.19,85.77z"/>
     <path class="fil31" d="M11157.74 14524.58c-123.5,-71.31 -226.28,-198.84 -289.33,-359.02 -39.73,-101.01 -76.25,-249.88 -24.45,-385.75 39.32,-103.03 121.59,-176.1 183.77,-219.29 26.3,-18.29 52.01,-32.96 77.21,-44.67 -18.1,45.22 -27.8,96.05 -27.71,149.57 0.08,68.44 14.75,141.49 46.16,229.98 55.33,156.04 134.39,287.52 235,390.77 20.94,21.5 42.86,41.68 65.6,60.48 91.15,75.39 195.62,128.4 302.76,153.72 -52.28,40.7 -116.87,70.61 -189.08,85.51 -128.16,26.5 -266.63,4.14 -379.93,-61.3z"/>
    </g>
    <g>
     <path class="fil32" d="M12592 15714.41c-8.8,-28.56 -27.7,-55.86 -44.7,-79.12 -6.75,-9.22 -9.08,-20.98 -6.32,-32.08 2.76,-11.08 10.25,-20.38 20.47,-25.42l184.46 -90.47c9.89,-4.84 21.03,-10.35 25.41,-16.08 10.23,-13.57 -2.78,-48.89 -7.71,-62.16 -12.08,-33.01 -26.04,-47.33 -31.76,-46.7 -4.65,0.56 -14.47,8.2 -20.32,12.8l-205.37 160.98c-12.75,9.98 -30.38,10.99 -44.14,2.5 -13.8,-8.63 -20.79,-24.7 -17.6,-40.61 5.25,-25.89 -13.14,-56.15 -38.53,-63.5 -20.72,-5.96 -45.41,3.66 -58.95,20.77 73.03,79.89 140.1,159.02 180.16,266.67 10.08,26.94 17.72,54.35 23.24,81.82 13.05,1.22 29.23,-6.88 37.47,-20.28 10.63,-17.4 12.22,-43.19 4.19,-69.12z"/>
     <path class="fil33" d="M12422.98 16107.37c67.14,-93.53 79.26,-230.88 31.73,-358.4 -39.26,-105.42 -112.1,-184.47 -189.23,-268.15l-11.43 -12.4c-12.34,-13.38 -24.23,-24.99 -35.88,-34.94 -54.98,-46.96 -104.91,-56.91 -168.03,-36.14 -58.68,19.29 -109.06,62.29 -150.64,101.77 -94.77,90.02 -176.45,192.79 -242.72,305.4 -59.27,100.65 -77.23,176.89 -56.65,239.97 12.57,38.46 42.32,75.32 83.78,103.69 42.31,28.91 92.61,47.24 136.2,61.38 128.58,41.69 233.3,55.93 329.63,44.89 116.22,-13.32 215.82,-66.93 273.24,-147.07z"/>
    </g>
   </g>
   <g>
    <path class="fil34" d="M10195.27 13883.25c-238.21,-102.09 -476.63,-205.17 -722.57,-287.55 -217.79,-72.95 -450.01,-132.76 -680.7,-137.77 -406.92,-8.85 -799.8,162.1 -1031.16,504.24 -90.25,133.48 -149.93,282.24 -180.95,440.15 -57.44,292.47 -14.57,602.23 84.99,881.01 221.81,621.08 723.76,1173.58 1273.15,1527.34 154.68,99.6 317.07,187.14 483.27,265.87 265.18,125.63 540.86,229.51 820.66,317.52 232.41,73.1 468.4,135.73 706.92,185.48 149.52,31.2 305.07,60.43 458.09,63.63 100.46,2.1 195.61,-8.79 290.1,-44.45 55.63,-21 108.09,-49.19 158.74,-80.15 345.84,-211.34 605.38,-557.37 809.55,-901.14 109.36,-184.12 207.31,-375.12 296.32,-569.85 99.47,-217.62 187.72,-440.62 262.21,-668.02 84.01,-256.44 151.65,-520.54 188.36,-788.12 35.02,-255.39 40.06,-518.84 10.4,-775 -39.59,-341.91 -143.56,-685.85 -342.43,-969.96 -246.28,-351.83 -638.62,-585.55 -1065.36,-634.21 -163.37,-18.64 -327.42,-7.24 -483.87,45.19 -143.66,48.15 -270.66,127.53 -380.63,231.38 -235.51,222.43 -393.05,550.08 -481.92,858.13 -93.49,324.12 -119.5,660.55 -144.77,995.35 -0.73,9.81 -9.39,17.25 -19.21,16.52 -9.81,-0.73 -17.26,-9.4 -16.52,-19.22l0.92 -12.15c25.18,-333.4 52.05,-667.69 145.14,-990.42 90.7,-314.44 251.4,-647.27 491.76,-874.27 113.67,-107.36 245.08,-189.41 393.57,-239.22 161.52,-54.17 330.91,-66.14 499.6,-46.91 436.93,49.83 838.49,289.04 1090.65,649.27 202.39,289.13 308.44,638.65 348.7,986.65 29.98,259.08 24.9,525.45 -10.53,783.74 -36.99,269.73 -105.12,535.91 -189.79,794.4 -74.91,228.68 -163.65,452.93 -263.67,671.77 -89.54,195.9 -188.1,388.03 -298.1,573.25 -207.37,349.15 -470.46,698.8 -821.68,913.44 -52.59,32.14 -107.02,61.29 -164.78,83.08 -98.84,37.31 -198.4,48.95 -303.51,46.76 -155.33,-3.25 -312.88,-32.71 -464.65,-64.37 -239.68,-49.99 -476.82,-112.93 -710.36,-186.39 -281.38,-88.5 -558.58,-192.99 -825.25,-319.32 -167.61,-79.4 -331.35,-167.68 -487.34,-268.12 -556.11,-358.09 -1062.99,-916.82 -1287.49,-1545.44 -24.25,-67.89 -45.02,-137.07 -61.92,-207.17 -93.58,-388.16 -66.55,-808.18 161.95,-1146.1 238.19,-352.26 642.5,-529.13 1061.62,-520.02 234.46,5.1 469.95,65.48 691.3,139.63 246.87,82.7 486.18,186.11 725.3,288.59 8.2,3.52 12.58,12.6 10.24,21.19 -0.22,0.8 -0.49,1.58 -0.82,2.34 -3.87,9.05 -14.49,13.3 -23.53,9.42z"/>
    <path class="fil34" d="M10057.63 13920.35c-238.21,-102.09 -476.64,-205.17 -722.57,-287.55 -217.79,-72.95 -450.01,-132.76 -680.7,-137.77 -406.92,-8.85 -799.8,162.1 -1031.16,504.24 -90.25,133.48 -149.94,282.24 -180.95,440.15 -57.44,292.46 -14.57,602.23 84.99,881.01 221.81,621.08 723.76,1173.58 1273.15,1527.34 154.68,99.6 317.07,187.14 483.26,265.87 265.19,125.62 540.86,229.51 820.67,317.52 232.41,73.1 468.4,135.73 706.92,185.48 149.52,31.19 305.07,60.43 458.09,63.63 100.46,2.1 195.61,-8.79 290.1,-44.45 55.63,-21 108.09,-49.19 158.74,-80.15 345.84,-211.34 605.38,-557.37 809.55,-901.14 109.36,-184.12 207.31,-375.12 296.32,-569.85 99.47,-217.62 187.72,-440.62 262.21,-668.02 84,-256.44 151.65,-520.54 188.35,-788.12 35.03,-255.39 40.06,-518.84 10.41,-775 -39.59,-341.91 -143.56,-685.85 -342.43,-969.96 -246.28,-351.83 -638.62,-585.55 -1065.36,-634.21 -163.37,-18.64 -327.43,-7.24 -483.87,45.19 -143.66,48.14 -270.66,127.53 -380.63,231.38 -235.51,222.43 -393.05,550.08 -481.92,858.13 -93.5,324.12 -119.5,660.55 -144.77,995.35 -0.74,9.81 -9.4,17.25 -19.21,16.52 -9.82,-0.74 -17.26,-9.4 -16.52,-19.22l0.92 -12.15c25.18,-333.4 52.05,-667.7 145.14,-990.43 90.7,-314.43 251.4,-647.26 491.76,-874.26 113.67,-107.36 245.08,-189.41 393.56,-239.22 161.53,-54.17 330.91,-66.14 499.61,-46.91 436.92,49.82 838.48,289.04 1090.65,649.27 202.38,289.13 308.43,638.65 348.7,986.65 29.98,259.08 24.89,525.45 -10.54,783.74 -36.99,269.73 -105.11,535.91 -189.79,794.4 -74.9,228.68 -163.65,452.93 -263.67,671.77 -89.53,195.9 -188.09,388.03 -298.1,573.25 -207.36,349.15 -470.45,698.8 -821.67,913.44 -52.59,32.14 -107.03,61.29 -164.79,83.08 -98.83,37.31 -198.4,48.95 -303.5,46.75 -155.34,-3.24 -312.88,-32.7 -464.65,-64.36 -239.69,-49.99 -476.82,-112.93 -710.36,-186.39 -281.38,-88.5 -558.59,-192.99 -825.26,-319.32 -167.6,-79.4 -331.34,-167.68 -487.33,-268.12 -556.11,-358.09 -1062.99,-916.82 -1287.49,-1545.44 -24.26,-67.89 -45.02,-137.07 -61.92,-207.17 -93.58,-388.16 -66.55,-808.18 161.95,-1146.1 238.19,-352.26 642.49,-529.13 1061.62,-520.02 234.45,5.1 469.95,65.48 691.3,139.63 246.87,82.7 486.18,186.11 725.3,288.59 8.2,3.51 12.58,12.6 10.24,21.19 -0.22,0.8 -0.49,1.58 -0.82,2.34 -3.87,9.05 -14.49,13.3 -23.53,9.42z"/>
    <path class="fil34" d="M10322.03 13699.91c-238.22,-102.09 -476.64,-205.16 -722.58,-287.55 -217.78,-72.95 -450,-132.76 -680.69,-137.77 -406.92,-8.85 -799.81,162.1 -1031.16,504.25 -90.25,133.47 -149.94,282.24 -180.95,440.15 -57.45,292.46 -14.58,602.22 84.98,881 221.82,621.08 723.76,1173.58 1273.16,1527.34 154.67,99.6 317.06,187.14 483.26,265.87 265.19,125.63 540.86,229.51 820.67,317.53 232.41,73.09 468.39,135.72 706.92,185.48 149.52,31.19 305.06,60.42 458.08,63.62 100.47,2.1 195.61,-8.79 290.11,-44.45 55.63,-20.99 108.08,-49.18 158.74,-80.15 345.83,-211.33 605.37,-557.36 809.54,-901.13 109.37,-184.13 207.32,-375.12 296.32,-569.86 99.47,-217.62 187.72,-440.61 262.21,-668.02 84.01,-256.44 151.65,-520.53 188.36,-788.12 35.03,-255.38 40.06,-518.83 10.4,-775 -39.58,-341.91 -143.56,-685.85 -342.43,-969.95 -246.28,-351.84 -638.62,-585.56 -1065.35,-634.22 -163.38,-18.63 -327.43,-7.24 -483.88,45.19 -143.65,48.15 -270.66,127.53 -380.62,231.39 -235.51,222.42 -393.06,550.07 -481.92,858.12 -93.5,324.12 -119.5,660.55 -144.77,995.35 -0.74,9.82 -9.4,17.26 -19.22,16.52 -9.81,-0.73 -17.26,-9.4 -16.51,-19.21l0.92 -12.16c25.17,-333.4 52.04,-667.69 145.14,-990.42 90.7,-314.44 251.4,-647.27 491.75,-874.27 113.67,-107.36 245.09,-189.4 393.57,-239.21 161.52,-54.18 330.91,-66.15 499.61,-46.92 436.92,49.83 838.48,289.04 1090.65,649.28 202.38,289.13 308.43,638.65 348.7,986.64 29.97,259.08 24.89,525.45 -10.54,783.75 -36.99,269.73 -105.12,535.9 -189.79,794.4 -74.91,228.68 -163.65,452.92 -263.67,671.77 -89.53,195.89 -188.09,388.02 -298.1,573.24 -207.37,349.16 -470.46,698.8 -821.68,913.44 -52.59,32.14 -107.02,61.29 -164.78,83.08 -98.84,37.31 -198.4,48.95 -303.5,46.76 -155.34,-3.25 -312.88,-32.71 -464.66,-64.36 -239.68,-50 -476.81,-112.94 -710.36,-186.4 -281.37,-88.5 -558.58,-192.98 -825.25,-319.31 -167.6,-79.41 -331.35,-167.68 -487.34,-268.13 -556.11,-358.09 -1062.99,-916.82 -1287.49,-1545.43 -24.25,-67.9 -45.02,-137.08 -61.91,-207.18 -93.59,-388.16 -66.55,-808.18 161.95,-1146.1 238.18,-352.25 642.49,-529.13 1061.61,-520.01 234.46,5.09 469.95,65.47 691.31,139.62 246.86,82.7 486.18,186.12 725.3,288.6 8.2,3.51 12.58,12.59 10.23,21.19 -0.21,0.79 -0.48,1.57 -0.81,2.33 -3.88,9.05 -14.49,13.3 -23.53,9.42z"/>
   </g>
  </g>
 </g>
</svg>
